<?xml version="1.0" encoding="iso-8859-1"?>
<!-- Generator: Adobe Illustrator 18.1.1, SVG Export Plug-In . SVG Version: 6.00 Build 0)  -->
<svg version="1.1" id="Capa_1" xmlns="http://www.w3.org/2000/svg" xmlns:xlink="http://www.w3.org/1999/xlink" x="0px" y="0px"
	 viewBox="0 0 650 100" style="enable-background:new 0 0 650 100;" xml:space="preserve">
<g><circle style="stroke: rgb(0, 0, 0); fill: rgba(216, 216, 216, 0);" transform="matrix(-0.422596, 0.906318, -0.906318, -0.422596, 243.540026, -26.940103)" cx="171.463" cy="122.365" r="53.367"></circle><rect x="3.002" y="73.347" width="133.639" height="65.087" style="fill: rgb(255, 255, 255);"></rect><circle style="paint-order: stroke; stroke-width: 3; stroke-linecap: square; stroke-linejoin: bevel; stroke: rgb(0, 0, 0); fill: rgba(216, 216, 216, 0);" transform="matrix(-0.015916, -0.456383, 0.435826, -0.0152, 32.356083, 197.476791)" cx="236.267" cy="116.804" r="30.996"></circle><line style="stroke: rgb(0, 0, 0);" x1="51.954" y1="87.998" x2="66.092" y2="88.18"></line><circle style="paint-order: stroke; stroke-width: 3; stroke-linecap: square; stroke-linejoin: bevel; stroke: rgb(0, 0, 0); fill: rgba(216, 216, 216, 0);" transform="matrix(-0.015916, -0.456383, 0.435826, -0.0152, -8.933808, 197.686615)" cx="236.267" cy="116.804" r="30.996"></circle><path style="fill: rgb(216, 216, 216); stroke: rgb(0, 0, 0);" d="M 7.866 113.728 C 7.866 113.728 4.578 130.563 7.866 137.995 C 10.816 144.663 20.739 152.524 27.355 155.901 C 42.751 163.761 47.376 170.064 59.189 170.38 C 71.222 170.702 80.027 163.316 90.845 158.189 C 98.647 154.491 110.032 146.512 113.493 138.781 C 116.746 131.514 113.493 113.728 113.493 113.728 C 113.493 113.728 101.657 134.668 90.8 136.152 C 86.183 136.784 84.45 128.392 79.976 127.115 C 73.88 125.374 64.805 123.93 58.451 123.852 C 52.299 123.776 44.334 125.526 38.404 127.112 C 34.208 128.235 33.111 135.799 28.815 135.124 C 18.811 133.551 7.866 113.728 7.866 113.728 Z"></path><path style="stroke: rgb(0, 0, 0); fill: rgb(255, 255, 255);" d="M 46.094 136.151 C 53.99 131.849 66.177 131.708 73.894 136.259 C 76.148 137.587 77.752 140.563 77.069 142.886 C 76.544 144.675 72.126 146.282 72.126 146.282 C 72.126 146.282 63.948 143.281 59.655 143.407 C 56.397 143.503 50.373 146.141 50.373 146.141 C 50.373 146.141 43.163 145.657 42.111 143.195 C 41.065 140.739 43.571 137.526 46.094 136.151 Z"></path>
</g>
<g>
	<text transform="matrix(3.897002, 0, 0, 5.291533, -691.003784, -421.419189)" style="fill: rgb(51, 51, 51); font-family: Arvo; font-size: 24px; white-space: pre;" x="211.249" y="106.473">30 &amp; Nerdy</text>
</g>
</svg>
